<svg width="16" height="16" viewBox="0 0 16 16" xmlns="http://www.w3.org/2000/svg">
    <g fill="none" fill-rule="evenodd">
        <path d="M0 0h16v16H0z"/>
        <path d="M8 1.333A3.167 3.167 0 0 1 11.167 4.5v.667h.166a2 2 0 0 1 2 2V12.5a2 2 0 0 1-2 2H4.667a2 2 0 0 1-2-2V7.167a2 2 0 0 1 2-2h.166V4.5A3.167 3.167 0 0 1 8 1.333zm3.333 4.834H4.667a1 1 0 0 0-1 1V12.5a1 1 0 0 0 1 1h6.666a1 1 0 0 0 1-1V7.167a1 1 0 0 0-1-1zM8 7.833a1.333 1.333 0 0 1 .5 2.57v.764a.5.5 0 0 1-1 0v-.764a1.334 1.334 0 0 1 .5-2.57zm0 1A.333.333 0 1 0 8 9.5a.333.333 0 0 0 0-.667zm0-6.5c-1.197 0-2.167.97-2.167 2.167v.667h4.334V4.5c0-1.197-.97-2.167-2.167-2.167z" fill="#8E8E93"/>
    </g>
</svg>
