<svg width="32" height="32" viewBox="0 0 32 32" xmlns="http://www.w3.org/2000/svg">
    <g fill="none" fill-rule="evenodd">
        <path d="M0 0h32v32H0z"/>
        <path d="M22.667 9.333H24a4 4 0 0 1 4 4V24a4 4 0 0 1-4 4H13.333a4 4 0 0 1-4-4v-1.333H8a4 4 0 0 1-4-4V8a4 4 0 0 1 4-4h10.667a4 4 0 0 1 4 4v1.333zm-4-3.333H8a2 2 0 0 0-2 2v10.667a2 2 0 0 0 2 2h1.333v-7.334a4 4 0 0 1 4-4h7.334V8a2 2 0 0 0-2-2zm-7.334 7.333a2 2 0 0 1 2-2H24a2 2 0 0 1 2 2V24a2 2 0 0 1-2 2H13.333a2 2 0 0 1-2-2V13.333z" fill="#5C97FF"/>
    </g>
</svg>
