<svg width="224" height="44" viewBox="0 0 224 44" fill="none" xmlns="http://www.w3.org/2000/svg">
<path d="M39.3943 30.5403L33.9951 19.8555L32.2568 17.8455V17.3959H39.1492V17.8455L37.8263 19.7761L41.4487 26.6107L43.6878 17.3959H45.846L50.082 26.7154L51.6935 19.6704L50.3281 17.8455V17.3959H56.2543V17.8455L54.6003 19.8555L49.1658 30.5403H47.9237L44.4139 22.5967L40.685 30.5403H39.3943Z" fill="white"/>
<path d="M61.1744 30.9142C60.0216 30.9142 59.0727 30.5847 58.3276 29.9257C57.5827 29.2488 57.2102 28.3851 57.2102 27.3341C57.2102 24.9832 59.1259 23.4604 62.957 22.7658L65.7773 22.2849V22.0979C65.7773 21.0114 65.52 20.1833 65.0056 19.6134C64.5089 19.0256 63.7995 18.7317 62.8772 18.7317C62.5402 18.7317 61.8639 18.8867 61.5269 18.9936L59.4049 21.8575H58.7664L57.2738 18.7243L57.4763 18.3043C58.1325 17.9302 59.0106 17.6185 60.1102 17.3692C61.2276 17.1198 62.3274 16.9951 63.4093 16.9951C65.4136 16.9951 66.939 17.4047 67.9854 18.2241C69.032 19.0434 69.5552 20.2367 69.5552 21.804V27.174L71.2047 28.6433V29.1776L67.6396 30.8875H67.0276L66.0964 28.8303H65.8571C64.6685 30.2195 63.1077 30.9142 61.1744 30.9142ZM61.1478 26.5862C61.1478 27.1918 61.3164 27.6637 61.6533 28.0021C62.0081 28.3227 62.4958 28.483 63.1166 28.483C64.1453 28.483 65.0322 28.2158 65.7773 27.6815V23.6475L64.2075 24.0482C63.1077 24.3153 62.3185 24.6448 61.8396 25.0367C61.3785 25.4285 61.1478 25.9451 61.1478 26.5862Z" fill="white"/>
<path d="M72.2947 30.5402V30.1128L74.0241 28.4296V21.2163L72.1351 19.4263V18.892L77.0038 17.209H77.7754L77.5892 19.5332H77.7222C79.3363 17.8412 81.0213 16.9951 82.7772 16.9951C84.143 16.9951 85.1984 17.4048 85.9433 18.2241C86.706 19.0434 87.0874 20.2012 87.0874 21.6972V28.4296L88.8166 30.1128V30.5402H81.6865V30.1128L83.3093 28.4296V22.6322C83.3093 21.5814 83.1053 20.8245 82.6974 20.3613C82.3072 19.8983 81.6686 19.6669 80.7819 19.6669C79.6644 19.6669 78.6711 20.0319 77.802 20.7622V28.4296L79.425 30.1128V30.5402H72.2947Z" fill="white"/>
<path d="M96.1248 30.9141C94.7763 30.9141 93.6855 30.4867 92.8519 29.6317C92.0182 28.7768 91.6013 27.6459 91.6013 26.2388V19.9873H89.2867V19.4263L94.6078 13.6022H95.3793V17.8247L99.5829 16.9964H100.062V20.0687L99.6891 20.3626L95.3793 19.5878V25.3038C95.3793 27.3519 96.1152 28.3761 97.5878 28.3761C98.581 28.3761 99.4231 27.9665 100.115 27.1471L100.913 27.6548C100.594 28.6522 100 29.4447 99.1303 30.0324C98.2796 30.6202 97.2768 30.9141 96.1248 30.9141Z" fill="white"/>
<path d="M106.53 7.95142L105.413 12.2777L101.134 13.3817V13.8227L105.413 14.9267L106.53 19.2529H106.946L108.063 14.9267L112.435 13.7986V13.4058L108.063 12.2777L106.946 7.95142H106.53Z" fill="white"/>
<path fill-rule="evenodd" clip-rule="evenodd" d="M31.3009 21.3619C31.3009 15.059 26.9418 11.8138 21.5647 11.8138C16.1875 11.8138 11.8285 15.0573 11.8285 21.3619C11.8285 27.2166 15.5274 30.3871 20.3138 30.8506C22.8283 34.8895 26.6984 36.0897 30.6067 34.9398L30.8912 34.5817L31.294 30.8126L30.6067 30.4398C28.4048 32.3094 24.8655 32.3077 22.5214 30.8754C27.4495 30.5142 31.3009 27.3268 31.3009 21.3619ZM26.6794 21.3619C26.6794 25.6987 25.0198 29.2144 21.565 29.2144C17.932 29.2144 16.4507 25.6987 16.4507 21.3619C16.4507 17.0251 17.9923 13.5094 21.565 13.5094C25.2413 13.5094 26.6794 17.0251 26.6794 21.3619Z" fill="white"/>
<path d="M116.733 13.6022H118.526L123.67 28.5202L128.85 13.6022H130.642L124.83 30.4772H122.546L116.733 13.6022Z" fill="white" fill-opacity="0.5"/>
<path d="M132.636 13.6022H134.358V30.4772H132.636V13.6022Z" fill="white" fill-opacity="0.5"/>
<path d="M137.871 13.6022H144.387C144.793 13.6022 145.188 13.6335 145.57 13.6959C146.43 13.8288 147.168 14.1334 147.785 14.61C148.403 15.0865 148.871 15.6881 149.192 16.4147C149.52 17.1412 149.684 17.9498 149.684 18.8405C149.684 19.7233 149.52 20.528 149.192 21.2545C148.871 21.9811 148.403 22.5826 147.785 23.0593C147.168 23.5358 146.43 23.8404 145.57 23.9733C145.188 24.0358 144.793 24.067 144.387 24.067H139.594V30.4772H137.871V13.6022ZM144.34 22.4264C144.723 22.4264 145.071 22.3913 145.383 22.3209C145.938 22.2037 146.403 21.9733 146.778 21.6295C147.161 21.278 147.446 20.86 147.633 20.3757C147.821 19.8912 147.915 19.3796 147.915 18.8405C147.915 18.2935 147.821 17.778 147.633 17.2936C147.446 16.8092 147.161 16.3951 146.778 16.0514C146.403 15.7076 145.938 15.4733 145.383 15.3482C145.071 15.2858 144.723 15.2545 144.34 15.2545H139.594V22.4264H144.34Z" fill="white" fill-opacity="0.5"/>
<path d="M152.017 17.821H153.563V20.8678L153.259 20.4693C153.399 20.1022 153.583 19.7584 153.809 19.4381C154.036 19.1178 154.282 18.8561 154.548 18.6529C154.868 18.3717 155.243 18.153 155.673 17.9967C156.11 17.8405 156.551 17.7506 156.997 17.7272C157.45 17.6959 157.864 17.7272 158.239 17.821V19.4381C157.723 19.3132 157.196 19.2897 156.656 19.3678C156.125 19.446 155.645 19.6608 155.215 20.0124C154.81 20.3249 154.497 20.7038 154.278 21.1491C154.067 21.5866 153.923 22.0397 153.844 22.5085C153.774 22.9694 153.739 23.5202 153.739 24.1608V30.4772H152.017V17.821Z" fill="white" fill-opacity="0.5"/>
<path d="M160.696 14.6208H162.419V16.5544H160.696V14.6208ZM160.696 17.821H162.419V30.4772H160.696V17.821Z" fill="white" fill-opacity="0.5"/>
<path d="M164.76 17.8209H166.506L170.245 28.2272L173.959 17.8209H175.729L171.136 30.4772H169.354L164.76 17.8209Z" fill="white" fill-opacity="0.5"/>
<path d="M180.746 30.8288C179.824 30.8288 179.034 30.6608 178.379 30.3248C177.73 29.9889 177.242 29.5358 176.914 28.9655C176.586 28.3951 176.421 27.7663 176.421 27.0788C176.421 26.0865 176.706 25.2896 177.277 24.6881C177.847 24.0865 178.636 23.6569 179.644 23.399C180.3 23.235 181.011 23.0983 181.777 22.9889C182.542 22.8717 183.585 22.7272 184.906 22.5552C185.297 22.5085 185.667 22.4576 186.019 22.4029L185.41 22.7779C185.425 21.9264 185.324 21.231 185.105 20.692C184.887 20.153 184.527 19.7545 184.027 19.4967C183.527 19.231 182.863 19.0982 182.035 19.0982C181.144 19.0982 180.402 19.2974 179.809 19.6959C179.222 20.0943 178.812 20.7076 178.578 21.5357L176.902 21.0436C177.199 19.9029 177.785 19.0241 178.66 18.4068C179.543 17.7819 180.675 17.4694 182.058 17.4694C183.223 17.4694 184.207 17.6881 185.012 18.1256C185.824 18.563 186.395 19.1881 186.723 20.0006C186.871 20.3443 186.969 20.7349 187.016 21.1725C187.07 21.61 187.098 22.0904 187.098 22.6139V30.4771H185.562V27.3014L186.008 27.4889C185.718 28.2077 185.324 28.817 184.824 29.3171C184.324 29.817 183.73 30.1959 183.043 30.4537C182.355 30.7037 181.589 30.8288 180.746 30.8288ZM180.945 29.3405C181.726 29.3405 182.418 29.1998 183.019 28.9186C183.628 28.6296 184.117 28.2349 184.484 27.735C184.859 27.235 185.105 26.6607 185.222 26.0124C185.292 25.6999 185.335 25.3717 185.352 25.0279C185.375 24.6764 185.386 24.2623 185.386 23.7858V23.5748L186.042 23.9146L185.258 24.0201C184.125 24.1452 183.172 24.2623 182.398 24.3717C181.625 24.4811 180.938 24.6177 180.336 24.7818C179.695 24.9615 179.167 25.235 178.754 25.6022C178.347 25.9616 178.145 26.4538 178.145 27.0788C178.145 27.4694 178.238 27.8365 178.426 28.1803C178.621 28.524 178.929 28.8053 179.351 29.0241C179.773 29.235 180.304 29.3405 180.945 29.3405Z" fill="white" fill-opacity="0.5"/>
<path d="M195.399 30.8288C194.156 30.8288 193.09 30.5475 192.199 29.985C191.308 29.4225 190.629 28.6373 190.16 27.6295C189.699 26.6217 189.46 25.4615 189.445 24.1491C189.46 22.8131 189.702 21.6451 190.171 20.6452C190.64 19.6373 191.321 18.856 192.21 18.3013C193.109 17.7467 194.176 17.4694 195.41 17.4694C196.254 17.4694 197.035 17.6099 197.753 17.8912C198.472 18.1725 199.085 18.5787 199.593 19.11C200.102 19.6334 200.473 20.2545 200.707 20.9733L199.019 21.5123C198.723 20.7623 198.254 20.1764 197.613 19.7545C196.973 19.3326 196.234 19.1217 195.399 19.1217C194.047 19.1217 193.023 19.5748 192.328 20.4811C191.64 21.3873 191.289 22.61 191.274 24.1491C191.281 25.1724 191.441 26.0631 191.754 26.8209C192.066 27.5709 192.531 28.1529 193.148 28.567C193.765 28.9733 194.515 29.1764 195.399 29.1764C196.249 29.1764 196.976 28.9811 197.578 28.5904C198.187 28.1998 198.652 27.6217 198.972 26.8561L200.707 27.3717C200.238 28.4967 199.55 29.3561 198.644 29.9498C197.738 30.5358 196.656 30.8288 195.399 30.8288Z" fill="white" fill-opacity="0.5"/>
<path d="M206.922 29.4576L206.957 31.4265L201.414 17.8209H203.242L207.789 29.1999H207.039L211.235 17.8209H212.992L206.196 36.1022H204.472L206.922 29.4576Z" fill="white" fill-opacity="0.5"/>
</svg>
