<svg width="22" height="22" viewBox="0 0 22 22" xmlns="http://www.w3.org/2000/svg">
    <g fill="none" fill-rule="evenodd">
        <path d="M0 0h22v22H0z"/>
        <path d="M11.688 1.833c2.933 0 5.49 1.413 7.104 3.587V3.438a.688.688 0 0 1 1.375 0v3.666a.688.688 0 0 1-.69.688l-.412-.002a.685.685 0 0 1-.09 0l-3.165-.01a.688.688 0 0 1 .005-1.374l1.997.006c-1.36-1.942-3.576-3.204-6.125-3.204a7.562 7.562 0 1 0 0 15.125c2.963 0 5.477-1.704 6.718-4.201a.687.687 0 1 1 1.231.611c-1.459 2.936-4.433 4.965-7.948 4.965a8.937 8.937 0 1 1 0-17.875zm0 4.584c.38 0 .687.307.687.687v3.287c0 .06.024.12.067.162l1.565 1.565a.687.687 0 1 1-.972.972l-1.565-1.565c-.301-.3-.47-.708-.47-1.134V7.104c0-.38.308-.687.688-.687z" fill="#1F70FF"/>
    </g>
</svg>
