<svg width="22" height="22" viewBox="0 0 22 22" xmlns="http://www.w3.org/2000/svg">
    <g fill="none" fill-rule="evenodd">
        <path d="M0 0h22v22H0z"/>
        <path d="m12.3 6.784-.867-2.493a.458.458 0 0 0-.866 0L9.7 6.784A3.208 3.208 0 0 1 6.735 8.94l-2.639.053a.458.458 0 0 0-.268.824l2.104 1.595a3.208 3.208 0 0 1 1.133 3.485L6.3 17.423a.458.458 0 0 0 .7.509l2.168-1.508a3.208 3.208 0 0 1 3.665 0l2.166 1.508a.458.458 0 0 0 .7-.509l-.764-2.527a3.208 3.208 0 0 1 1.133-3.485l2.104-1.595a.458.458 0 0 0-.268-.824l-2.64-.053A3.208 3.208 0 0 1 12.3 6.784zm.432-2.945c-.57-1.642-2.893-1.642-3.464 0l-.866 2.494a1.833 1.833 0 0 1-1.695 1.23l-2.639.055c-1.738.035-2.455 2.243-1.07 3.294L5.1 12.506c.611.464.87 1.258.648 1.992l-.765 2.527c-.503 1.664 1.375 3.028 2.802 2.036l2.167-1.508a1.833 1.833 0 0 1 2.094 0l2.167 1.508c1.427.992 3.305-.372 2.802-2.036l-.764-2.527a1.833 1.833 0 0 1 .647-1.992l2.103-1.594c1.386-1.05.668-3.259-1.07-3.294l-2.64-.054a1.833 1.833 0 0 1-1.694-1.231l-.866-2.494z" fill="#1F70FF"/>
    </g>
</svg>
