<svg width="24" height="24" viewBox="0 0 24 24" xmlns="http://www.w3.org/2000/svg">
    <g fill="none" fill-rule="evenodd">
        <path d="M0 0h24v24H0z"/>
        <path d="M3.5 11.75a8.25 8.25 0 0 1 8.25-8.25c2.78 0 5.198 1.376 6.682 3.495l-2.18-.007a.75.75 0 0 0-.004 1.5l3.451.01a.747.747 0 0 0 .099 0l.45.002A.75.75 0 0 0 21 7.75v-4a.75.75 0 0 0-1.5 0v2.162C17.74 3.542 14.95 2 11.75 2 6.365 2 2 6.365 2 11.75s4.365 9.75 9.75 9.75c3.835 0 7.08-2.213 8.672-5.416a.75.75 0 1 0-1.344-.668C17.725 18.14 14.982 20 11.75 20a8.25 8.25 0 0 1-8.25-8.25z" fill="#8E8E93"/>
    </g>
</svg>
