<svg width="74" height="74" viewBox="0 0 74 74" xmlns="http://www.w3.org/2000/svg">
    <g fill="none" fill-rule="evenodd">
        <path d="M0 0h74v74H0z"/>
        <path d="M52.417 40.854c6.385 0 11.562 5.177 11.562 11.563 0 6.385-5.177 11.562-11.562 11.562-6.386 0-11.563-5.177-11.563-11.562 0-.375.018-.745.053-1.11A6.9 6.9 0 0 0 37 50.104c-1.42 0-2.77.427-3.907 1.204.035.365.053.735.053 1.109 0 6.385-5.177 11.562-11.563 11.562-6.385 0-11.562-5.177-11.562-11.562 0-6.386 5.177-11.563 11.562-11.563a11.56 11.56 0 0 1 10.095 5.92A11.524 11.524 0 0 1 37 45.48c1.885 0 3.702.454 5.322 1.295a11.557 11.557 0 0 1 10.095-5.92zM21.583 45.48a6.938 6.938 0 1 0 0 13.875 6.938 6.938 0 0 0 0-13.875zm30.834 0a6.937 6.937 0 1 0 0 13.875 6.937 6.937 0 0 0 0-13.875zm-3.084-35.461c6.386 0 11.563 5.176 11.563 11.562v9.401c1.413.2 2.825.416 4.234.651a2.312 2.312 0 1 1-.76 4.562 166.484 166.484 0 0 0-54.74 0 2.313 2.313 0 0 1-.76-4.562c1.41-.235 2.821-.452 4.235-.651v-9.4c0-6.387 5.176-11.563 11.562-11.563h24.666zm0 4.625H24.667a6.937 6.937 0 0 0-6.938 6.937v8.813a171.11 171.11 0 0 1 38.542 0V21.58a6.937 6.937 0 0 0-6.938-6.937z" fill="#AC99FF" fill-rule="nonzero"/>
    </g>
</svg>
