<svg width="32" height="32" viewBox="0 0 32 32" xmlns="http://www.w3.org/2000/svg">
    <g fill="none" fill-rule="evenodd">
        <path d="M0 0h32v32H0z"/>
        <path d="M2 2h28v28H2z"/>
        <path d="M18.042 4.333a3.208 3.208 0 0 1 3.208 3.209v.291h4.958a.875.875 0 0 1 0 1.75H24.75v14.292a3.208 3.208 0 0 1-3.208 3.208H9.875a3.208 3.208 0 0 1-3.208-3.208V9.583H5.208a.875.875 0 0 1 0-1.75h4.959v-.291a3.208 3.208 0 0 1 3.208-3.209h4.667zM23 9.583H8.417v14.292c0 .805.653 1.458 1.458 1.458h11.667c.805 0 1.458-.653 1.458-1.458V9.583zm-9.625 4.084c.483 0 .875.391.875.875v5.833a.875.875 0 0 1-1.75 0v-5.833c0-.484.392-.875.875-.875zm4.667 0c.483 0 .875.391.875.875v5.833a.875.875 0 0 1-1.75 0v-5.833c0-.484.391-.875.875-.875zm0-7.584h-4.667c-.805 0-1.458.653-1.458 1.459v.291H19.5v-.291c0-.806-.653-1.459-1.458-1.459z" fill="#7B5CFF"/>
    </g>
</svg>
