<svg width="452" height="519" viewBox="0 0 452 519" fill="none" xmlns="http://www.w3.org/2000/svg">
<path d="M370.895 0.884003L355.734 59.658L297.592 74.656V80.647L355.734 95.645L370.895 154.42H376.559L391.72 95.645L451.128 80.32V74.983L391.72 59.658L376.559 0.884003H370.895Z" fill="#111111"/>
<path fill-rule="evenodd" clip-rule="evenodd" d="M335.186 276.547C335.186 168.095 260.181 112.256 167.658 112.256C75.1349 112.256 0.129883 168.065 0.129883 276.547C0.129883 377.253 63.7339 431.804 146.05 439.807C188.631 509.479 249.648 531.407 316.905 511.619L321.8 505.456L335.067 439.162L323.241 432.747C285.355 464.917 224.455 464.887 184.12 440.243C268.917 434.027 335.186 379.183 335.186 276.547ZM255.666 276.547C255.666 351.169 227.109 411.662 167.665 411.662C105.151 411.662 79.6639 351.169 79.6639 276.547C79.6639 201.925 106.19 141.432 167.665 141.432C230.92 141.432 255.666 201.925 255.666 276.547Z" fill="#111111"/>
</svg>
