<svg width="32" height="32" viewBox="0 0 32 32" xmlns="http://www.w3.org/2000/svg">
    <g fill="none" fill-rule="evenodd">
        <path d="M0 0h32v32H0z"/>
        <path d="M14.093 3.75c1.974-2.353 5.788-.57 5.251 2.453l-1.055 5.938h6.04c2.549 0 3.936 2.977 2.298 4.93l-9.385 11.176c-1.975 2.352-5.788.57-5.251-2.454l1.055-5.938h-6.04c-2.549 0-3.937-2.977-2.298-4.929L14.093 3.75zm3.282 2.103c.179-1.008-1.092-1.602-1.75-.818L6.24 16.212a1 1 0 0 0 .766 1.643h7.233a1 1 0 0 1 .984 1.175l-1.263 7.113c-.18 1.008 1.092 1.602 1.75.818l9.385-11.177a1 1 0 0 0-.766-1.643h-7.233a1 1 0 0 1-.985-1.175l1.264-7.113z" fill="#5C97FF"/>
    </g>
</svg>
