<svg width="24" height="24" viewBox="0 0 24 24" xmlns="http://www.w3.org/2000/svg">
    <g fill="none" fill-rule="evenodd">
        <path d="M0 0h24v24H0z"/>
        <path d="M12 2a4.752 4.752 0 0 1 4.6 3.563.75.75 0 0 1-1.452.374 3.252 3.252 0 0 0-6.398.813v1H17a3 3 0 0 1 3 3v8a3 3 0 0 1-3 3H7a3 3 0 0 1-3-3v-8a3 3 0 0 1 3-3h.25v-1A4.75 4.75 0 0 1 12 2zm5 7.25H7a1.5 1.5 0 0 0-1.5 1.5v8a1.5 1.5 0 0 0 1.5 1.5h10a1.5 1.5 0 0 0 1.5-1.5v-8a1.5 1.5 0 0 0-1.5-1.5zm-5 2.5a2 2 0 0 1 .75 3.855v1.145a.75.75 0 0 1-1.5 0v-1.145A2 2 0 0 1 12 11.75zm0 1.5a.5.5 0 1 0 0 1 .5.5 0 0 0 0-1z" fill="#676E79"/>
    </g>
</svg>
